<svg viewBox="-0.5 -0.5 16 16" fill="none" xmlns="http://www.w3.org/2000/svg" id="Air-Conditioner--Streamline-Iconoir.svg" height="16" width="16"><desc>Air Conditioner Streamline Icon: https://streamlinehq.com</desc><path d="M14.337187499999999 1.5858125v5.0595625H0.6628125V1.5858125c0 -0.2265625 0.183625 -0.41025 0.4101875 -0.41025h12.854000000000001c0.2265625 0 0.4101875 0.1836875 0.4101875 0.41025Z" stroke="currentColor" stroke-linecap="round" stroke-linejoin="round" stroke-width="1"></path><path d="M11.6023125 3.9104375000000005h0.6837500000000001" stroke="currentColor" stroke-linecap="round" stroke-linejoin="round" stroke-width="1"></path><path d="m0.6628125 6.645375 0.539875 1.767c0.17575000000000002 0.5750625 0.7065 0.967875 1.3078124999999998 0.967875h0.8871875" stroke="currentColor" stroke-linecap="round" stroke-linejoin="round" stroke-width="1"></path><path d="m14.337187499999999 6.645375 -0.5399375 1.767c-0.1756875 0.5750625 -0.7063750000000001 0.967875 -1.30775 0.967875h-0.8871875" stroke="currentColor" stroke-linecap="round" stroke-linejoin="round" stroke-width="1"></path><path d="M5.790687500000001 9.038375s0 4.7860625 -2.3930000000000002 4.7860625" stroke="currentColor" stroke-linecap="round" stroke-linejoin="round" stroke-width="1"></path><path d="M9.2093125 9.038375s0 4.7860625 2.3930000000000002 4.7860625" stroke="currentColor" stroke-linecap="round" stroke-linejoin="round" stroke-width="1"></path><path d="M7.5 9.038375v4.7860625" stroke="currentColor" stroke-linecap="round" stroke-linejoin="round" stroke-width="1"></path></svg>